# xmcd
# 
# Track frame offsets:
#     150
#     19722
#     36737
#     58611
#     74086
#     98836
#     113878
#     127043
#     150296
#     181576
#     207981
#     223452
#     249035
#     270090
# 
# Disc length: 3956
# 
# Revision: 0
# Processed by: cddbd v1.5.2PL0 Copyright (c) Steve Scherf et al.
# Submitted via: BonkEnc v1.0.15
# 
DISCID=c50f720e
DTITLE=Fabrizzio Poggi and Chicken Mambo - Songs for Angelina
DYEAR=2001
DGENRE=Blues
TTITLE0=I Wish to Be In Texas
TTITLE1=What the Cowboys Say feat. Don McCalister and Ponty Bone
TTITLE2=I'm On the Road Again feat. Jerry Jeff Walker
TTITLE3=Song for Angelina
TTITLE4=Mexican Moon
TTITLE5=Guantanamera
TTITLE6=Hey Evangeline feat. Zachary Richard
TTITLE7=Te Ni Nee Ni Nu
TTITLE8=Knockin' On Heaven's Door
TTITLE9=Stand By Me
TTITLE10=Bayou Queen (live at Texas tv)
TTITLE11=Sweet Cajun Flower
TTITLE12=La Bamba
TTITLE13=Under the Southern Sky (live and acoustic)
EXTD=
EXTT0=
EXTT1=
EXTT2=
EXTT3=
EXTT4=
EXTT5=
EXTT6=
EXTT7=
EXTT8=
EXTT9=
EXTT10=
EXTT11=
EXTT12=
EXTT13=
PLAYORDER=
